<?xml version="1.0" encoding="utf-8"?><!-- Uploaded to: SVG Repo, www.svgrepo.com, Generator: SVG Repo Mixer Tools -->
<svg width="800px" height="800px" viewBox="0 0 24 24" fill="none" xmlns="http://www.w3.org/2000/svg">
<path d="M13.4126 15L10.5421 10.9335C10.0849 10.2858 9.85636 9.96204 9.57524 9.85289C9.32941 9.75744 9.05583 9.76296 8.81405 9.86825C8.53756 9.98865 8.32224 10.3214 7.89161 10.9869L4.25737 16.6035C4.16197 16.7509 4.11427 16.8247 4.08048 16.9041C4.0505 16.9746 4.02872 17.0483 4.01557 17.1238C4.00075 17.2088 4.00073 17.2967 4.00068 17.4723L4 20H20.0008L20.0008 17.4604C20.0008 17.2891 20.0008 17.2035 19.9867 17.1204C19.9742 17.0467 19.9534 16.9746 19.9249 16.9055C19.8926 16.8276 19.8471 16.7551 19.7561 16.61L18.79 15.0702C17.9362 13.7095 17.5093 13.0291 16.9545 12.7811C16.4695 12.5642 15.9181 12.5492 15.4221 12.7395C14.8547 12.957 14.3915 13.6132 13.4651 14.9256L13.4126 15ZM13.4126 15L16.9545 20M20.0008 6C20.0008 7.10457 19.1054 8 18.0008 8C16.8962 8 16.0008 7.10457 16.0008 6C16.0008 4.89543 16.8962 4 18.0008 4C19.1054 4 20.0008 4.89543 20.0008 6Z" stroke="#000000" stroke-width="2" stroke-linecap="round" stroke-linejoin="round"/>
</svg>