<?xml version="1.0" encoding="utf-8"?><!-- Uploaded to: SVG Repo, www.svgrepo.com, Generator: SVG Repo Mixer Tools -->
<svg width="800px" height="800px" viewBox="0 0 24 24" fill="none" xmlns="http://www.w3.org/2000/svg">
<path fill-rule="evenodd" clip-rule="evenodd" d="M9.11241 7.82201C9.44756 6.83666 10.5551 6 12 6C13.7865 6 15 7.24054 15 8.5C15 9.75946 13.7865 11 12 11C11.4477 11 11 11.4477 11 12L11 14C11 14.5523 11.4477 15 12 15C12.5523 15 13 14.5523 13 14L13 12.9082C15.203 12.5001 17 10.7706 17 8.5C17 5.89347 14.6319 4 12 4C9.82097 4 7.86728 5.27185 7.21894 7.17799C7.0411 7.70085 7.3208 8.26889 7.84366 8.44673C8.36653 8.62458 8.93457 8.34488 9.11241 7.82201ZM12 20C12.8285 20 13.5 19.3284 13.5 18.5C13.5 17.6716 12.8285 17 12 17C11.1716 17 10.5 17.6716 10.5 18.5C10.5 19.3284 11.1716 20 12 20Z" fill="#000000"/>
</svg>