<?xml version="1.0" encoding="UTF-8" standalone="no"?>
<!-- Uploaded to: SVG Repo, www.svgrepo.com, Generator: SVG Repo Mixer Tools -->

<svg
   width="800"
   height="800"
   viewBox="0 0 24 24"
   fill="none"
   version="1.1"
   id="svg1"
   xmlns="http://www.w3.org/2000/svg"
   xmlns:svg="http://www.w3.org/2000/svg">
  <defs
     id="defs1" />
  <path
     fill-rule="evenodd"
     clip-rule="evenodd"
     d="m 17.0392,15.6244 c 1.2322,-1.5404 1.969,-3.4943 1.969,-5.6203 C 19.0082,5.03127 14.9769,1 10.0041,1 5.03127,1 1,5.03127 1,10.0041 c 0,4.9728 4.03127,9.0041 9.0041,9.0041 2.126,0 4.0799,-0.7368 5.6203,-1.969 l 5.6677,5.6678 c 0.3907,0.3907 1.0242,0.3907 1.4149,0 0.3907,-0.3907 0.3907,-1.0242 0,-1.4149 z m -7.0351,1.3929 c -3.8733,0 -7.01323,-3.1399 -7.01323,-7.0132 0,-3.8733 3.13993,-7.01323 7.01323,-7.01323 3.8733,0 7.0132,3.13993 7.0132,7.01323 0,3.8733 -3.1399,7.0132 -7.0132,7.0132 z"
     fill="#000000"
     id="path1"
     style="fill:#000000;fill-opacity:1" />
</svg>
