<?xml version="1.0" encoding="utf-8"?>
<svg viewBox="0 0 500 500" xmlns="http://www.w3.org/2000/svg">
  <ellipse style="fill: rgb(30, 30, 46); stroke: rgb(137, 180, 250); stroke-width: 6px;" cx="250" cy="250" rx="232.367" ry="232.367"/>
  <path d="M 380.682 235.497 L 256.039 235.497 C 256.039 161.636 224.573 161.636 194.15 161.636 C 164.891 161.636 137.232 161.636 137.232 92.705 L 132.282 92.705 C 132.282 166.567 163.749 166.567 194.15 166.567 C 223.431 166.567 251.089 166.567 251.089 235.497 L 121.873 235.497 C 114.481 235.497 108.483 241.913 108.483 249.766 L 108.483 364.018 C 108.483 371.92 114.481 378.288 121.873 378.288 L 380.682 378.288 C 388.069 378.288 394.066 371.92 394.066 364.018 L 394.066 249.766 C 394.066 241.913 388.069 235.497 380.682 235.497 M 361.11 245.026 L 369.896 245.026 C 376.731 245.026 376.731 254.555 369.896 254.555 L 361.11 254.555 C 354.279 254.555 354.279 245.026 361.11 245.026 M 332.571 245.026 L 341.357 245.026 C 348.191 245.026 348.191 254.555 341.357 254.555 L 332.571 254.555 C 325.74 254.555 325.74 245.026 332.571 245.026 M 346.469 297.363 L 346.469 306.892 C 346.469 309.544 344.332 311.681 341.729 311.681 L 332.199 311.681 C 329.553 311.686 327.406 309.539 327.411 306.892 L 327.411 297.363 C 327.411 294.76 329.548 292.623 332.199 292.623 L 341.729 292.623 C 344.341 292.633 346.454 294.75 346.469 297.363 M 317.93 268.824 C 317.93 266.173 320.067 264.084 322.67 264.084 L 332.199 264.084 C 334.803 264.084 336.94 266.173 336.94 268.824 L 336.94 278.353 C 336.925 280.966 334.812 283.084 332.199 283.094 L 322.67 283.094 C 320.058 283.084 317.94 280.966 317.93 278.353 L 317.93 268.824 M 303.983 245.026 L 312.77 245.026 C 319.605 245.026 319.605 254.555 312.77 254.555 L 303.983 254.555 C 297.154 254.555 297.154 245.026 303.983 245.026 M 317.93 297.363 L 317.93 306.892 C 317.93 309.544 315.793 311.681 313.141 311.681 L 303.612 311.681 C 301.009 311.681 298.872 309.544 298.872 306.892 L 298.872 297.363 C 298.881 294.75 300.999 292.633 303.612 292.623 L 313.141 292.623 C 315.793 292.623 317.93 294.76 317.93 297.363 M 294.107 264.084 L 303.612 264.084 C 306.249 264.055 308.401 266.187 308.401 268.824 L 308.401 278.353 C 308.401 280.957 306.264 283.094 303.612 283.094 L 294.107 283.094 C 291.485 283.094 289.352 280.976 289.343 278.353 L 289.343 268.824 C 289.338 266.197 291.475 264.065 294.107 264.084 M 279.838 325.95 C 279.838 323.299 281.975 321.162 284.602 321.162 L 294.107 321.162 C 296.735 321.162 298.872 323.299 298.872 325.95 L 298.872 335.48 C 298.872 338.083 296.735 340.22 294.107 340.22 L 284.602 340.22 C 281.98 340.22 279.847 338.102 279.838 335.48 L 279.838 325.95 M 275.073 311.681 C 272.431 311.676 270.299 309.529 270.309 306.892 L 270.309 297.363 C 270.309 294.76 272.446 292.623 275.073 292.623 L 284.602 292.623 C 287.215 292.633 289.328 294.75 289.343 297.363 L 289.343 306.892 C 289.343 309.544 287.205 311.681 284.602 311.681 L 275.073 311.681 M 275.444 245.026 L 284.231 245.026 C 291.066 245.026 291.066 254.555 284.231 254.555 L 275.444 254.555 C 268.614 254.555 268.614 245.026 275.444 245.026 M 260.804 268.824 C 260.804 266.173 262.941 264.084 265.544 264.084 L 275.073 264.084 C 277.701 264.065 279.838 266.197 279.838 268.824 L 279.838 278.353 C 279.838 280.957 277.701 283.094 275.073 283.094 L 265.544 283.094 C 262.931 283.084 260.813 280.966 260.804 278.353 L 260.804 268.824 M 270.309 325.95 L 270.309 335.48 C 270.309 338.083 268.171 340.22 265.544 340.22 L 256.039 340.22 C 253.417 340.22 251.284 338.102 251.275 335.48 L 251.275 325.95 C 251.275 323.299 253.412 321.162 256.039 321.162 L 265.544 321.162 C 268.171 321.162 270.309 323.299 270.309 325.95 M 260.804 306.892 C 260.804 309.544 258.667 311.681 256.039 311.681 L 246.51 311.681 C 243.868 311.676 241.737 309.529 241.746 306.892 L 241.746 297.363 C 241.746 294.76 243.883 292.623 246.51 292.623 L 256.039 292.623 C 258.667 292.623 260.804 294.76 260.804 297.363 L 260.804 306.892 M 246.881 245.026 L 255.668 245.026 C 262.503 245.026 262.503 254.555 255.668 254.555 L 246.881 254.555 C 240.051 254.555 240.051 245.026 246.881 245.026 M 232.241 268.824 C 232.236 266.197 234.373 264.065 237.005 264.084 L 246.51 264.084 C 249.137 264.065 251.275 266.197 251.275 268.824 L 251.275 278.353 C 251.275 280.957 249.137 283.094 246.51 283.094 L 237.005 283.094 C 234.383 283.094 232.25 280.976 232.241 278.353 L 232.241 268.824 M 241.746 325.95 L 241.746 335.48 C 241.732 338.092 239.618 340.21 237.005 340.22 L 227.476 340.22 C 224.854 340.22 222.721 338.102 222.712 335.48 L 222.712 325.95 C 222.712 323.299 224.849 321.162 227.476 321.162 L 237.005 321.162 C 239.608 321.162 241.746 323.299 241.746 325.95 M 232.241 306.892 C 232.241 309.544 230.103 311.681 227.476 311.681 L 217.947 311.681 C 215.344 311.681 213.207 309.544 213.207 306.892 L 213.207 297.363 C 213.216 294.75 215.334 292.633 217.947 292.623 L 227.476 292.623 C 230.103 292.623 232.241 294.76 232.241 297.363 L 232.241 306.892 M 218.318 245.026 L 227.105 245.026 C 233.94 245.026 233.94 254.555 227.105 254.555 L 218.318 254.555 C 211.489 254.555 211.489 245.026 218.318 245.026 M 203.678 268.824 C 203.673 266.197 205.81 264.065 208.442 264.084 L 217.947 264.084 C 220.574 264.065 222.712 266.197 222.712 268.824 L 222.712 278.353 C 222.712 280.957 220.574 283.094 217.947 283.094 L 208.442 283.094 C 205.82 283.094 203.687 280.976 203.678 278.353 L 203.678 268.824 M 189.756 245.026 L 198.566 245.026 C 205.377 245.026 205.377 254.555 198.566 254.555 L 189.756 254.555 C 182.926 254.555 182.926 245.026 189.756 245.026 M 203.678 297.363 L 203.678 306.892 C 203.678 309.544 201.54 311.681 198.913 311.681 L 189.408 311.681 C 186.766 311.676 184.634 309.529 184.644 306.892 L 184.644 297.363 C 184.644 294.76 186.781 292.623 189.408 292.623 L 198.913 292.623 C 201.54 292.623 203.678 294.76 203.678 297.363 M 179.879 264.084 L 189.408 264.084 C 192.031 264.065 194.163 266.197 194.15 268.824 L 194.15 278.353 C 194.145 280.971 192.026 283.089 189.408 283.094 L 179.879 283.094 C 177.257 283.094 175.124 280.976 175.115 278.353 L 175.115 268.824 C 175.111 266.197 177.247 264.065 179.879 264.084 M 161.193 245.026 L 170.003 245.026 C 176.838 245.026 176.838 254.555 170.003 254.555 L 161.193 254.555 C 154.386 254.555 154.386 245.026 161.193 245.026 M 175.115 297.363 L 175.115 306.892 C 175.115 309.544 172.977 311.681 170.35 311.681 L 160.845 311.681 C 158.203 311.676 156.072 309.529 156.081 306.892 L 156.081 297.363 C 156.081 294.76 158.218 292.623 160.845 292.623 L 170.35 292.623 C 172.977 292.623 175.115 294.76 175.115 297.363 M 151.316 264.084 L 160.845 264.084 C 163.472 264.065 165.61 266.197 165.61 268.824 L 165.61 278.353 C 165.61 280.957 163.472 283.094 160.845 283.094 L 151.316 283.094 C 148.694 283.094 146.561 280.976 146.551 278.353 L 146.551 268.824 C 146.548 266.197 148.684 264.065 151.316 264.084 M 132.653 245.026 L 141.44 245.026 C 148.275 245.026 148.275 254.555 141.44 254.555 L 132.653 254.555 C 125.824 254.555 125.824 245.026 132.653 245.026 M 118.013 268.824 C 117.993 266.197 120.127 264.065 122.754 264.084 L 132.282 264.084 C 134.909 264.065 137.047 266.197 137.047 268.824 L 137.047 278.353 C 137.047 280.957 134.909 283.094 132.282 283.094 L 122.754 283.094 C 120.135 283.089 118.013 280.971 118.013 278.353 L 118.013 268.824 M 118.013 297.363 C 118.013 294.76 119.964 292.623 122.406 292.623 L 142.159 292.623 C 144.601 292.623 146.551 294.76 146.551 297.363 L 146.551 306.892 C 146.551 309.544 144.601 311.681 142.159 311.681 L 122.406 311.681 C 119.964 311.681 118.013 309.544 118.013 306.892 L 118.013 297.363 M 146.551 364.018 C 146.551 366.622 144.601 368.759 142.159 368.759 L 122.406 368.759 C 119.964 368.759 118.013 366.622 118.013 364.018 L 118.013 354.489 C 118.013 351.886 119.964 349.749 122.406 349.749 L 142.159 349.749 C 144.601 349.749 146.551 351.886 146.551 354.489 L 146.551 364.018 M 151.85 340.22 L 122.244 340.22 C 119.897 340.22 118.013 338.083 118.013 335.48 L 118.013 325.95 C 118.013 323.299 119.897 321.162 122.244 321.162 L 151.854 321.162 C 154.177 321.162 156.085 323.299 156.085 325.95 L 156.085 335.48 C 156.081 338.083 154.177 340.22 151.85 340.22 M 175.115 364.018 C 175.115 366.622 172.977 368.759 170.35 368.759 L 160.845 368.759 C 158.223 368.759 156.09 366.641 156.081 364.018 L 156.081 354.489 C 156.076 351.862 158.213 349.73 160.845 349.749 L 170.35 349.749 C 172.977 349.73 175.115 351.862 175.115 354.489 L 175.115 364.018 M 179.879 340.22 L 170.35 340.22 C 167.737 340.21 165.619 338.092 165.61 335.48 L 165.61 325.95 C 165.61 323.299 167.747 321.162 170.35 321.162 L 179.879 321.162 C 182.506 321.162 184.644 323.299 184.644 325.95 L 184.644 335.48 C 184.644 338.083 182.506 340.22 179.879 340.22 M 203.678 364.018 C 203.678 366.622 201.54 368.759 198.913 368.759 L 189.408 368.759 C 186.786 368.759 184.653 366.641 184.644 364.018 L 184.644 354.489 C 184.639 351.862 186.776 349.73 189.408 349.749 L 198.913 349.749 C 201.54 349.73 203.678 351.862 203.678 354.489 L 203.678 364.018 M 208.442 340.22 L 198.913 340.22 C 196.291 340.22 194.158 338.102 194.15 335.48 L 194.15 325.95 C 194.15 323.299 196.286 321.162 198.913 321.162 L 208.442 321.162 C 211.069 321.162 213.207 323.299 213.207 325.95 L 213.207 335.48 C 213.207 338.083 211.069 340.22 208.442 340.22 M 308.401 364.018 C 308.401 366.622 306.635 368.759 304.403 368.759 L 217.157 368.759 C 214.973 368.759 213.207 366.622 213.207 364.018 L 213.207 354.489 C 213.207 351.886 214.973 349.749 217.157 349.749 L 304.403 349.749 C 306.635 349.749 308.401 351.886 308.401 354.489 L 308.401 364.018 M 308.401 335.48 L 308.401 325.95 C 308.401 323.299 310.538 321.162 313.141 321.162 L 322.67 321.162 C 325.273 321.162 327.411 323.299 327.411 325.95 L 327.411 335.48 C 327.397 338.092 325.283 340.21 322.67 340.22 L 313.141 340.22 C 310.528 340.21 308.411 338.092 308.401 335.48 M 336.94 364.018 C 336.925 366.631 334.812 368.749 332.199 368.759 L 322.67 368.759 C 320.058 368.749 317.94 366.631 317.93 364.018 L 317.93 354.489 C 317.93 351.838 320.067 349.749 322.67 349.749 L 332.199 349.749 C 334.803 349.749 336.94 351.838 336.94 354.489 L 336.94 364.018 M 384.537 364.018 C 384.537 366.622 382.634 368.759 380.306 368.759 L 350.696 368.759 C 348.373 368.759 346.469 366.622 346.469 364.018 L 346.469 354.489 C 346.469 351.838 348.373 349.749 350.701 349.749 L 380.311 349.749 C 382.634 349.749 384.542 351.838 384.542 354.489 L 384.542 364.018 L 384.537 364.018 Z M 384.537 335.48 C 384.537 338.083 382.819 340.22 380.635 340.22 L 340.848 340.22 C 338.711 340.22 336.945 338.083 336.945 335.48 L 336.945 325.95 C 336.945 323.299 338.711 321.162 340.848 321.162 L 380.635 321.162 C 382.819 321.162 384.537 323.299 384.537 325.95 L 384.537 335.48 M 384.537 306.892 C 384.537 309.544 382.585 311.681 380.168 311.681 L 360.367 311.681 C 357.95 311.681 355.998 309.544 355.998 306.892 L 355.998 297.363 C 355.998 294.76 357.95 292.623 360.367 292.623 L 380.168 292.623 C 382.585 292.623 384.537 294.76 384.537 297.363 L 384.537 306.892 M 384.537 278.353 C 384.537 280.957 382.634 283.094 380.306 283.094 L 350.696 283.094 C 348.373 283.094 346.469 280.957 346.469 278.353 L 346.469 268.824 C 346.469 266.173 348.373 264.084 350.701 264.084 L 380.311 264.084 C 382.634 264.084 384.542 266.173 384.542 268.824 L 384.542 278.353 L 384.537 278.353 Z" style="fill: rgb(137, 180, 250);"/>
</svg>