<?xml version="1.0" encoding="utf-8"?>
<svg width="800px" height="800px" viewBox="0 0 24 24" xmlns="http://www.w3.org/2000/svg">
  <path d="M 12.446 2.92 C 11.985 2.45 11.222 2.468 10.783 2.96 L 3.744 10.843 C 3.558 11.052 3.455 11.322 3.455 11.602 L 3.455 20.283 C 3.455 20.912 3.965 21.422 4.594 21.422 L 8.013 21.422 C 8.642 21.422 9.152 20.912 9.152 20.283 L 9.152 16.295 C 9.152 15.665 9.662 15.155 10.291 15.155 L 13.71 15.155 C 14.339 15.155 14.849 15.665 14.849 16.295 L 14.849 20.283 C 14.849 20.912 15.359 21.422 15.989 21.422 L 19.407 21.422 C 20.036 21.422 20.546 20.912 20.546 20.283 L 20.546 11.633 C 20.546 11.335 20.429 11.048 20.22 10.835 L 12.446 2.92 Z"  style=""/>
</svg>