<?xml version="1.0" encoding="UTF-8" standalone="no"?>
<!-- Created with Inkscape (http://www.inkscape.org/) -->

<svg
   width="477.68097mm"
   height="348.86911mm"
   viewBox="0 0 477.68097 348.86911"
   version="1.1"
   id="svg1"
   xmlns="http://www.w3.org/2000/svg"
   xmlns:svg="http://www.w3.org/2000/svg">
  <defs
     id="defs1" />
  <g
     id="layer1"
     transform="translate(-17.159504,-81.565432)">
    <g
       id="g14"
       transform="matrix(1.3128648,0,0,1.3128648,-33.549446,-13.107075)">
      <rect
         style="fill:none;fill-opacity:1;stroke:#f0dd01;stroke-width:7.36336;stroke-linejoin:round;stroke-miterlimit:7;stroke-dasharray:none;stroke-opacity:1"
         id="rect1"
         width="285.57855"
         height="156.32181"
         x="113.21072"
         y="177.8391"
         rx="17.625624"
         ry="22.055595" />
      <g
         id="g11"
         transform="matrix(2.2912181,0,0,2.2023118,23.590013,-6.536337)">
        <rect
           style="fill:none;fill-opacity:1;stroke:#f0dd01;stroke-width:1.85208;stroke-linejoin:round;stroke-miterlimit:7;stroke-dasharray:none;stroke-opacity:1"
           id="rect2"
           width="17.577133"
           height="16.443123"
           x="62.046085"
           y="96.09655"
           rx="1.6510323"
           ry="1.9172894" />
        <text
           xml:space="preserve"
           style="font-size:9.87778px;font-family:'Inter Nerd Font Propo';-inkscape-font-specification:'Inter Nerd Font Propo';fill:#f0dd01;fill-opacity:1;stroke:none;stroke-width:1.85208;stroke-linejoin:round;stroke-miterlimit:7;stroke-dasharray:none;stroke-opacity:1"
           x="66.246422"
           y="107.76942"
           id="text2"><tspan
             id="tspan2"
             style="font-size:9.87778px;fill:#f0dd01;fill-opacity:1;stroke:none;stroke-width:1.85208"
             x="66.246422"
             y="107.76942">W</tspan></text>
      </g>
      <g
         id="g10"
         transform="matrix(2.2905626,0,0,2.2296083,2.5758635,-9.3291367)">
        <rect
           style="fill:none;fill-opacity:1;stroke:#f0dd01;stroke-width:1.85208;stroke-linejoin:round;stroke-miterlimit:7;stroke-dasharray:none;stroke-opacity:1"
           id="rect2-2"
           width="17.577133"
           height="16.443123"
           x="133.08032"
           y="96.097038"
           rx="1.6510323"
           ry="1.9172894" />
        <text
           xml:space="preserve"
           style="font-size:9.87778px;font-family:'Inter Nerd Font Propo';-inkscape-font-specification:'Inter Nerd Font Propo';fill:#f0dd01;fill-opacity:1;stroke:none;stroke-width:1.85208;stroke-linejoin:round;stroke-miterlimit:7;stroke-dasharray:none;stroke-opacity:1"
           x="138.92525"
           y="107.76991"
           id="text2-9"><tspan
             id="tspan2-1"
             style="font-size:9.87778px;fill:#f0dd01;fill-opacity:1;stroke:none;stroke-width:1.85208"
             x="138.92525"
             y="107.76991">L</tspan></text>
      </g>
      <path
         style="fill:none;fill-opacity:1;stroke:#f0dd01;stroke-width:4.30256;stroke-linejoin:round;stroke-miterlimit:7;stroke-dasharray:none;stroke-opacity:1"
         id="path2-9"
         transform="matrix(2.2905478,0,0,1.672383,212.36262,24.117195)"
         d="m 67.331223,91.824396 -17.061203,-10e-7 -17.061204,10e-7 8.530603,-14.775435 8.530601,-14.775436 8.5306,14.775436 z" />
      <path
         style="fill:none;fill-opacity:1;stroke:#f0dd01;stroke-width:4.30256;stroke-linejoin:round;stroke-miterlimit:7;stroke-dasharray:none;stroke-opacity:1"
         id="path2-9-9"
         transform="matrix(2.2905478,0,0,1.672383,69.618554,23.806382)"
         d="m 67.331223,91.824396 -17.061203,-10e-7 -17.061204,10e-7 8.530603,-14.775435 8.530601,-14.775436 8.5306,14.775436 z" />
      <rect
         style="fill:none;fill-opacity:1;stroke:#f0dd01;stroke-width:4.73531;stroke-linejoin:round;stroke-miterlimit:7;stroke-dasharray:none;stroke-opacity:1"
         id="rect5"
         width="143.14272"
         height="27.976051"
         x="183.00209"
         y="285.77646"
         rx="0"
         ry="7.4925861" />
      <g
         id="g12"
         transform="matrix(1.9237184,0,0,1.9236901,58.004154,27.036255)">
        <path
           style="color:#000000;fill:#f0dd01;fill-opacity:1;stroke-linejoin:round;stroke-miterlimit:7;-inkscape-stroke:none"
           d="m 52.712825,120.37315 c 0,0 -0.28493,-0.37993 -1.107356,-0.17979 -0.822427,0.20015 -1.985069,0.59135 -3.396485,1.35352 -2.748839,1.48436 -6.432877,4.37207 -10.388945,9.96618 -0.178081,0.25181 -0.114432,0.59993 0.139197,0.77545 0.355831,0.24624 0.977356,-0.0392 1.405359,-0.62528 3.679063,-5.03757 7.030378,-7.61327 9.481108,-8.93667 1.309369,-0.70706 2.338889,-1.20303 3.053705,-1.37699 0.714817,-0.17396 0.827949,-0.64641 0.827949,-0.64641 z"
           id="path6" />
        <path
           style="color:#000000;fill:#f0dd01;fill-opacity:1;stroke-linejoin:round;stroke-miterlimit:7;-inkscape-stroke:none"
           d="m 52.712825,120.37315 c 0,0 -0.28493,-0.37993 -1.107356,-0.17979 -0.822427,0.20015 -1.985069,0.59135 -3.396485,1.35352 -2.748839,1.48436 -6.432877,4.37207 -10.388945,9.96618 -0.178081,0.25181 -0.114432,0.59993 0.139197,0.77545 0.355831,0.24624 0.977356,-0.0392 1.405359,-0.62528 3.679063,-5.03757 7.030378,-7.61327 9.481108,-8.93667 1.309369,-0.70706 2.338889,-1.20303 3.053705,-1.37699 0.714817,-0.17396 0.827949,-0.64641 0.827949,-0.64641 z"
           id="path6-9"
           transform="translate(3.8695588,5.4468934)" />
      </g>
      <g
         id="g9"
         transform="matrix(-1.9237065,0,0,1.9237065,670.49819,27.033963)"
         style="stroke-width:1;stroke-dasharray:none">
        <path
           style="color:#000000;fill:#f0dd01;fill-opacity:1;stroke-width:1.00015;stroke-linejoin:round;stroke-miterlimit:7;stroke-dasharray:none"
           d="m 52.712825,120.37315 c 0,0 -0.28493,-0.37993 -1.107356,-0.17979 -0.822427,0.20015 -1.985069,0.59135 -3.396485,1.35352 -2.748839,1.48436 -6.432877,4.37207 -10.388945,9.96618 -0.178081,0.25181 -0.114432,0.59993 0.139197,0.77545 0.355831,0.24624 0.977356,-0.0392 1.405359,-0.62528 3.679063,-5.03757 7.030378,-7.61327 9.481108,-8.93667 1.309369,-0.70706 2.338889,-1.20303 3.053705,-1.37699 0.714817,-0.17396 0.827949,-0.64641 0.827949,-0.64641 z"
           id="path6-5"
           transform="translate(113.09374,4.1838727e-4)" />
        <path
           style="color:#000000;fill:#f0dd01;fill-opacity:1;stroke-width:1;stroke-linejoin:round;stroke-miterlimit:7;stroke-dasharray:none"
           d="m 52.712825,120.37315 c 0,0 -0.28493,-0.37993 -1.107356,-0.17979 -0.822427,0.20015 -1.985069,0.59135 -3.396485,1.35352 -2.748839,1.48436 -6.432877,4.37207 -10.388945,9.96618 -0.178081,0.25181 -0.114432,0.59993 0.139197,0.77545 0.355831,0.24624 0.977356,-0.0392 1.405359,-0.62528 3.679063,-5.03757 7.030378,-7.61327 9.481108,-8.93667 1.309369,-0.70706 2.338889,-1.20303 3.053705,-1.37699 0.714817,-0.17396 0.827949,-0.64641 0.827949,-0.64641 z"
           id="path6-9-9"
           transform="translate(116.96332,5.4473118)" />
        <path
           style="color:#000000;fill:#f0dd01;fill-opacity:1;stroke-linejoin:round;stroke-miterlimit:7;-inkscape-stroke:none"
           d="m 303.10547,23.453125 c -1.51434,-0.06456 -2.98501,0.02431 -4.40625,0.25 -5.68498,0.902764 -10.45378,3.875491 -14.25586,7.306641 -7.60417,6.862299 -11.66211,15.816406 -11.66211,15.816406 -0.0654,0.141879 -0.11706,0.289687 -0.1543,0.441406 0,0 -0.30945,1.271875 -0.52343,2.917969 -0.21399,1.646094 -0.39541,3.680506 0.0605,5.699219 0.22798,1.009356 0.6257,2.084151 1.53906,2.988281 0.91337,0.904129 2.38685,1.405595 3.74805,1.285156 2.72241,-0.240878 5.25411,-1.964479 8.96485,-5.410156 l 4.68021,-4.346717 a 2.4789823,2.4789823 92.124432 0 0 0.12994,-3.502873 2.4394546,2.4394546 1.6443746 0 0 -3.44901,-0.09901 l -4.69318,4.358759 c -3.32357,3.086177 -5.49137,4.012899 -5.98828,4.085938 -0.0281,-0.05283 -0.0779,-0.09943 -0.15429,-0.4375 -0.20457,-0.905733 -0.70777,-2.604284 -0.52951,-3.975787 0.15989,-1.229986 0.88712,-1.973319 0.92987,-2.155073 0.15013,-0.318689 3.85348,-8.13698 10.38281,-14.029297 3.33147,-3.006453 7.29229,-5.398832 11.74219,-6.105468 4.4499,-0.706637 9.49791,0.158398 15.46679,4.173828 5.4473,3.664544 8.18993,11.080449 8.58399,20.716797 0.39406,9.636347 -1.59624,21.208457 -5.00977,32.246093 -3.41352,11.037636 -8.25075,21.563386 -13.34961,29.160156 -2.54943,3.79839 -5.17064,6.86018 -7.60547,8.875 -2.43482,2.01482 -4.60664,2.90343 -6.27343,2.88086 l -0.0664,4.89844 c 3.33655,0.0452 6.49549,-1.55033 9.46289,-4.00586 2.96741,-2.45554 5.8196,-5.8488 8.55078,-9.91797 5.46236,-8.13835 10.42271,-19.002503 13.96094,-30.44336 3.53823,-11.440857 5.65228,-23.436268 5.22461,-33.894531 -0.42767,-10.458264 -3.43222,-19.663101 -10.74414,-24.582032 -5.09275,-3.426031 -10.01949,-5.001627 -14.5625,-5.195312 z"
           id="path12" />
      </g>
    </g>
  </g>
</svg>
