<svg width="200" height="200" viewBox="0 0 50 51" fill="none" xmlns="http://www.w3.org/2000/svg">
<path d="M30.65 17.2861C36.765 9.74819 27.3781 10.7772 26.0157 10.0954C25.537 9.85613 25.066 7.54632 24.0006 8.07969C22.36 8.90045 22.4994 13.1729 22.3214 14.5981C22.2247 15.3739 21.1416 16.4846 20.7856 17.2861C20.2174 18.5651 19.593 20.0865 18.5491 21.6753C17.5054 23.2641 15.324 24.4959 14.2321 25.7101C9.58525 30.8753 11.5775 36.9474 16.6794 40.874C21.8395 44.8455 43.3914 43.3633 37.2999 34.2211" stroke="currentColor" stroke-linecap="round" stroke-linejoin="round"/>
<path d="M28.2379 20.7854C29.7522 26.3284 27.5784 32.117 27.5784 37.5446C27.5784 38.1693 28.8179 37.5665 29.4251 37.6781" stroke="currentColor" stroke-linecap="round" stroke-linejoin="round"/>
<path d="M20.3334 26.6099C21.5524 26.7894 22.6649 27.6842 23.5277 28.5207C27.8227 32.6851 22.336 35.4837 22.0321 36.9559C21.9635 37.2889 23.3794 37.5181 23.6637 37.5486" stroke="currentColor" stroke-linecap="round" stroke-linejoin="round"/>
<path d="M26.442 8.37428C27.2701 7.59747 27.4281 8.95713 27.5784 9.70476" stroke="currentColor" stroke-linecap="round" stroke-linejoin="round"/>
</svg>
