<?xml version="1.0" encoding="utf-8"?><!-- Uploaded to: SVG Repo, www.svgrepo.com, Generator: SVG Repo Mixer Tools -->
<svg fill="currentColor" width="800px" height="800px" viewBox="0 0 24 24" xmlns="http://www.w3.org/2000/svg" id="update-alt" class="icon glyph"><path d="M12,3A9,9,0,0,0,6,5.32V3A1,1,0,0,0,4,3V8a1,1,0,0,0,.92,1H10a1,1,0,0,0,0-2H7.11A7,7,0,0,1,19,12a1,1,0,0,0,2,0A9,9,0,0,0,12,3Z"></path><path d="M19.08,15H14a1,1,0,0,0,0,2h2.89A7,7,0,0,1,5,12a1,1,0,0,0-2,0,9,9,0,0,0,15,6.68V21a1,1,0,0,0,2,0V16A1,1,0,0,0,19.08,15Z"></path></svg>